<svg width="62" height="62" viewBox="0 0 62 62" fill="none" xmlns="http://www.w3.org/2000/svg">
<path d="M59.8181 30.9987C60.7756 29.8837 61.4466 28.5519 61.7729 27.1188C62.0992 25.6858 62.0709 24.1948 61.6904 22.7751C61.31 21.3555 60.589 20.0501 59.5898 18.9722C58.5907 17.8943 57.3437 17.0765 55.9569 16.5897C56.2286 15.1452 56.1438 13.6563 55.7098 12.252C55.2757 10.8478 54.5056 9.57062 53.4663 8.53139C52.4269 7.49216 51.1497 6.72222 49.7454 6.28839C48.3411 5.85455 46.8521 5.76991 45.4077 6.04181C44.9213 4.65473 44.1036 3.40735 43.0257 2.40797C41.9478 1.4086 40.6422 0.68743 39.2224 0.307083C37.8025 -0.0732633 36.3113 -0.101291 34.8782 0.225433C33.445 0.552157 32.1133 1.22376 30.9986 2.18192C29.8836 1.22442 28.5518 0.553421 27.1187 0.227149C25.6857 -0.0991239 24.1946 -0.0708197 22.775 0.309605C21.3554 0.690029 20.05 1.41108 18.9721 2.41022C17.8942 3.40935 17.0764 4.65639 16.5895 6.04315C15.1452 5.77169 13.6564 5.85671 12.2523 6.29084C10.8483 6.72497 9.57133 7.4951 8.53226 8.53443C7.4932 9.57376 6.72339 10.8509 6.28962 12.2551C5.85585 13.6592 5.77121 15.1481 6.04304 16.5923C4.65628 17.0792 3.40924 17.897 2.41011 18.9749C1.41097 20.0528 0.689911 21.3582 0.309487 22.7778C-0.0709374 24.1974 -0.0992457 25.6885 0.227027 27.1215C0.553299 28.5546 1.22431 29.8864 2.18181 31.0014C1.22402 32.1164 0.552802 33.4483 0.226436 34.8815C-0.0999288 36.3147 -0.071596 37.8059 0.308995 39.2257C0.689586 40.6455 1.41092 41.9509 2.4104 43.0287C3.40988 44.1065 4.65731 44.9241 6.04439 45.4105C5.77232 46.8548 5.85686 48.3437 6.29069 49.748C6.72451 51.1522 7.49451 52.4294 8.53384 53.4686C9.57316 54.5078 10.8504 55.2776 12.2547 55.7112C13.659 56.1449 15.1479 56.2292 16.5922 55.957C17.0791 57.3438 17.8969 58.5908 18.9748 59.5899C20.0527 60.5891 21.358 61.3101 22.7777 61.6905C24.1973 62.071 25.6883 62.0993 27.1214 61.773C28.5545 61.4467 29.8863 60.7757 31.0013 59.8182C32.1163 60.776 33.4482 61.4472 34.8814 61.7736C36.3146 62.1 37.8058 62.0716 39.2256 61.691C40.6454 61.3104 41.9508 60.5891 43.0286 59.5896C44.1064 58.5901 44.924 57.3427 45.4104 55.9556C46.8548 56.2276 48.3437 56.143 49.748 55.7092C51.1522 55.2754 52.4294 54.5054 53.4687 53.4661C54.508 52.4269 55.278 51.1497 55.7118 49.7454C56.1456 48.3411 56.2302 46.8522 55.9582 45.4078C57.3451 44.9211 58.5922 44.1033 59.5914 43.0254C60.5906 41.9474 61.3116 40.642 61.692 39.2222C62.0723 37.8025 62.1004 36.3114 61.7738 34.8783C61.4473 33.4453 60.776 32.1135 59.8181 30.9987Z" fill="#FF7140"/>
<path d="M25.4352 42.8322L16.8206 34.223C16.4937 33.8956 16.3101 33.4518 16.3101 32.989C16.3101 32.5263 16.4937 32.0825 16.8206 31.755L17.8672 30.7071C18.1947 30.3802 18.6385 30.1965 19.1012 30.1965C19.564 30.1965 20.0078 30.3802 20.3352 30.7071L26.5973 36.9651L41.345 21.2932C41.6623 20.9565 42.1003 20.7594 42.5627 20.7453C43.0252 20.7312 43.4744 20.9012 43.8116 21.2179L44.8864 22.2323C45.2235 22.5497 45.4208 22.9879 45.4349 23.4507C45.449 23.9135 45.2788 24.363 44.9617 24.7003L27.9448 42.7933C27.7846 42.964 27.5917 43.1008 27.3775 43.1955C27.1634 43.2902 26.9324 43.3409 26.6983 43.3445C26.4641 43.3482 26.2317 43.3047 26.0147 43.2167C25.7977 43.1287 25.6006 42.9979 25.4352 42.8322Z" fill="white"/>
</svg>
