<svg width="16" height="16" viewBox="0 0 16 16" fill="none" xmlns="http://www.w3.org/2000/svg">
<path d="M12.5 2.5H3.5C2.96957 2.5 2.46086 2.71071 2.08579 3.08579C1.71071 3.46086 1.5 3.96957 1.5 4.5V9.5C1.5 10.0304 1.71071 10.5391 2.08579 10.9142C2.46086 11.2893 2.96957 11.5 3.5 11.5H9L12 13.5V11.5H12.5C13.0304 11.5 13.5391 11.2893 13.9142 10.9142C14.2893 10.5391 14.5 10.0304 14.5 9.5V4.5C14.5 3.96957 14.2893 3.46086 13.9142 3.08579C13.5391 2.71071 13.0304 2.5 12.5 2.5Z" stroke="black" stroke-linecap="round" stroke-linejoin="round"/>
<path d="M5 7.5C5 7.63261 4.94732 7.75979 4.85355 7.85355C4.75979 7.94732 4.63261 8 4.5 8C4.36739 8 4.24021 7.94732 4.14645 7.85355C4.05268 7.75979 4 7.63261 4 7.5C4 7.36739 4.05268 7.24021 4.14645 7.14645C4.24021 7.05268 4.36739 7 4.5 7C4.63261 7 4.75979 7.05268 4.85355 7.14645C4.94732 7.24021 5 7.36739 5 7.5ZM8 7.5C8 7.63261 7.94732 7.75979 7.85355 7.85355C7.75979 7.94732 7.63261 8 7.5 8C7.36739 8 7.24021 7.94732 7.14645 7.85355C7.05268 7.75979 7 7.63261 7 7.5C7 7.36739 7.05268 7.24021 7.14645 7.14645C7.24021 7.05268 7.36739 7 7.5 7C7.63261 7 7.75979 7.05268 7.85355 7.14645C7.94732 7.24021 8 7.36739 8 7.5ZM11 7.5C11 7.63261 10.9473 7.75979 10.8536 7.85355C10.7598 7.94732 10.6326 8 10.5 8C10.3674 8 10.2402 7.94732 10.1464 7.85355C10.0527 7.75979 10 7.63261 10 7.5C10 7.36739 10.0527 7.24021 10.1464 7.14645C10.2402 7.05268 10.3674 7 10.5 7C10.6326 7 10.7598 7.05268 10.8536 7.14645C10.9473 7.24021 11 7.36739 11 7.5Z" stroke="black" stroke-linecap="round" stroke-linejoin="round"/>
</svg>
