<svg width="19" height="17" viewBox="0 0 19 17" fill="none" xmlns="http://www.w3.org/2000/svg">
<path d="M9.12604 1.05371C7.00821 1.05371 4.97712 1.83072 3.47959 3.2138C1.98205 4.59688 1.14075 6.47274 1.14075 8.42871C1.14075 10.3847 1.98205 12.2605 3.47959 13.6436C4.97712 15.0267 7.00821 15.8037 9.12604 15.8037C11.2439 15.8037 13.275 15.0267 14.7725 13.6436C16.27 12.2605 17.1113 10.3847 17.1113 8.42871C17.1113 6.47274 16.27 4.59688 14.7725 3.2138C13.275 1.83072 11.2439 1.05371 9.12604 1.05371ZM9.12604 14.7501V2.10728C10.0249 2.10728 10.9149 2.27079 11.7453 2.58847C12.5757 2.90615 13.3303 3.37179 13.9659 3.95879C14.6014 4.54578 15.1056 5.24265 15.4496 6.0096C15.7935 6.77656 15.9706 7.59857 15.9706 8.42871C15.9706 9.25885 15.7935 10.0809 15.4496 10.8478C15.1056 11.6148 14.6014 12.3116 13.9659 12.8986C13.3303 13.4856 12.5757 13.9513 11.7453 14.2689C10.9149 14.5866 10.0249 14.7501 9.12604 14.7501Z" fill="#093663"/>
</svg>
