<svg width="19" height="19" viewBox="0 0 19 19" fill="none" xmlns="http://www.w3.org/2000/svg">
<path d="M9.57125 0.664889C7.96705 0.647922 6.38437 1.03496 4.96905 1.79036C3.55373 2.54575 2.35128 3.64519 1.4725 4.98739V1.84051H0V5.93739C0.0061804 6.29655 0.152412 6.63908 0.407519 6.89197C0.662626 7.14486 1.00643 7.2881 1.36563 7.29114H5.45063V5.81864H2.69563C3.43676 4.67357 4.45626 3.73523 5.65875 3.09141C6.86123 2.4476 8.20738 2.11935 9.57125 2.13739C11.6005 2.06661 13.5755 2.80077 15.0659 4.17987C16.5562 5.55897 17.441 7.47122 17.5275 9.49989C17.441 11.5286 16.5562 13.4408 15.0659 14.8199C13.5755 16.199 11.6005 16.9332 9.57125 16.8624C7.54197 16.9332 5.56697 16.199 4.07665 14.8199C2.58633 13.4408 1.7015 11.5286 1.615 9.49989H0.1425C0.226184 11.9201 1.26531 14.2086 3.03243 15.8644C4.79954 17.5203 7.1507 18.4086 9.57125 18.3349C11.9918 18.4086 14.343 17.5203 16.1101 15.8644C17.8772 14.2086 18.9163 11.9201 19 9.49989C18.9163 7.07966 17.8772 4.79117 16.1101 3.13533C14.343 1.47949 11.9918 0.591201 9.57125 0.664889Z" fill="#093663"/>
<path d="M8.83496 5.08252V10.2363H13.11V8.76377H10.3075V5.08252H8.83496Z" fill="#093663"/>
</svg>
