<svg width="26" height="26" viewBox="0 0 26 26" fill="none" xmlns="http://www.w3.org/2000/svg">
<path d="M2.4375 13L12.1388 3.29877C12.2518 3.18563 12.3861 3.09588 12.5339 3.03465C12.6816 2.97341 12.84 2.94189 13 2.94189C13.16 2.94189 13.3184 2.97341 13.4661 3.03465C13.6139 3.09588 13.7482 3.18563 13.8613 3.29877L23.5625 13M4.875 10.5625V21.5313C4.875 22.204 5.421 22.75 6.09375 22.75H10.5625V17.4688C10.5625 16.796 11.1085 16.25 11.7813 16.25H14.2188C14.8915 16.25 15.4375 16.796 15.4375 17.4688V22.75H19.9063C20.579 22.75 21.125 22.204 21.125 21.5313V10.5625M8.9375 22.75H17.875" stroke="black" stroke-width="1.5" stroke-linecap="round" stroke-linejoin="round"/>
</svg>
