<svg width="22" height="22" viewBox="0 0 22 22" fill="none" xmlns="http://www.w3.org/2000/svg">
<path d="M11 11H17.4167M17.4167 11L14.6667 13.75M17.4167 11L14.6667 8.25M17.4167 5.5V4.58333C17.4167 4.0971 17.2236 3.63079 16.8797 3.28697C16.5359 2.94315 16.0696 2.75 15.5834 2.75H6.41671C5.93048 2.75 5.46416 2.94315 5.12034 3.28697C4.77653 3.63079 4.58337 4.0971 4.58337 4.58333V17.4167C4.58337 17.9029 4.77653 18.3692 5.12034 18.713C5.46416 19.0568 5.93048 19.25 6.41671 19.25H15.5834C16.0696 19.25 16.5359 19.0568 16.8797 18.713C17.2236 18.3692 17.4167 17.9029 17.4167 17.4167V16.5" stroke="#E40000" stroke-width="1.5" stroke-linecap="round" stroke-linejoin="round"/>
</svg>
