<svg width="20" height="20" viewBox="0 0 20 20" fill="none" xmlns="http://www.w3.org/2000/svg">
<path d="M1.66663 4.99998C1.66663 4.55795 1.84222 4.13403 2.15478 3.82147C2.46734 3.50891 2.89127 3.33331 3.33329 3.33331H16.6666C17.1087 3.33331 17.5326 3.50891 17.8451 3.82147C18.1577 4.13403 18.3333 4.55795 18.3333 4.99998V14.1666C18.3333 14.6087 18.1577 15.0326 17.8451 15.3452C17.5326 15.6577 17.1087 15.8333 16.6666 15.8333H12.845L10.5891 18.0891C10.4329 18.2454 10.2209 18.3331 9.99996 18.3331C9.77899 18.3331 9.56707 18.2454 9.41079 18.0891L7.15496 15.8333H3.33329C2.89127 15.8333 2.46734 15.6577 2.15478 15.3452C1.84222 15.0326 1.66663 14.6087 1.66663 14.1666V4.99998ZM16.6666 4.99998H3.33329V14.1666H7.49996C7.72095 14.1667 7.93288 14.2545 8.08913 14.4108L9.99996 16.3216L11.9108 14.4108C12.067 14.2545 12.279 14.1667 12.5 14.1666H16.6666V4.99998ZM4.99996 7.91665C4.99996 7.69563 5.08776 7.48367 5.24404 7.32739C5.40032 7.17111 5.61228 7.08331 5.83329 7.08331H14.1666C14.3876 7.08331 14.5996 7.17111 14.7559 7.32739C14.9122 7.48367 15 7.69563 15 7.91665C15 8.13766 14.9122 8.34962 14.7559 8.5059C14.5996 8.66218 14.3876 8.74998 14.1666 8.74998H5.83329C5.61228 8.74998 5.40032 8.66218 5.24404 8.5059C5.08776 8.34962 4.99996 8.13766 4.99996 7.91665ZM4.99996 11.25C4.99996 11.029 5.08776 10.817 5.24404 10.6607C5.40032 10.5044 5.61228 10.4166 5.83329 10.4166H10.8333C11.0543 10.4166 11.2663 10.5044 11.4225 10.6607C11.5788 10.817 11.6666 11.029 11.6666 11.25C11.6666 11.471 11.5788 11.683 11.4225 11.8392C11.2663 11.9955 11.0543 12.0833 10.8333 12.0833H5.83329C5.61228 12.0833 5.40032 11.9955 5.24404 11.8392C5.08776 11.683 4.99996 11.471 4.99996 11.25Z" fill="#093663"/>
</svg>
