<svg width="18" height="20" viewBox="0 0 18 20" fill="none" xmlns="http://www.w3.org/2000/svg">
<path d="M7.14603 1.248C7.29544 0.878712 7.55173 0.562458 7.88205 0.339774C8.21237 0.11709 8.60166 -0.00187683 9.00003 -0.00187683C9.3984 -0.00187683 9.78769 0.11709 10.118 0.339774C10.4483 0.562458 10.7046 0.878712 10.854 1.248C12.333 1.65423 13.6377 2.53499 14.5674 3.75487C15.4971 4.97475 16.0005 6.46622 16 8V12.697L17.832 15.445C17.9325 15.5956 17.9902 15.7707 17.999 15.9515C18.0078 16.1323 17.9673 16.3121 17.8819 16.4718C17.7965 16.6314 17.6693 16.7648 17.514 16.8579C17.3587 16.9509 17.1811 17 17 17H12.465C12.3446 17.8331 11.9281 18.5949 11.2917 19.1459C10.6554 19.6969 9.84179 20.0002 9.00003 20.0002C8.15827 20.0002 7.34469 19.6969 6.70833 19.1459C6.07197 18.5949 5.65543 17.8331 5.53503 17H1.00003C0.818985 17 0.641331 16.9509 0.486019 16.8579C0.330707 16.7648 0.203563 16.6314 0.118154 16.4718C0.0327439 16.3121 -0.00772782 16.1323 0.00105578 15.9515C0.00983938 15.7707 0.0675489 15.5956 0.168028 15.445L2.00003 12.697V8C2.00003 4.776 4.18003 2.06 7.14603 1.248ZM7.58603 17C7.68931 17.2926 7.88081 17.5461 8.13415 17.7253C8.38749 17.9046 8.69019 18.0008 9.00053 18.0008C9.31087 18.0008 9.61357 17.9046 9.8669 17.7253C10.1202 17.5461 10.3117 17.2926 10.415 17H7.58603ZM9.00003 3C7.67395 3 6.40218 3.52678 5.46449 4.46447C4.52681 5.40215 4.00003 6.67392 4.00003 8V13C4.00007 13.1975 3.94161 13.3907 3.83203 13.555L2.86903 15H15.13L14.167 13.555C14.0578 13.3905 13.9997 13.1974 14 13V8C14 6.67392 13.4732 5.40215 12.5356 4.46447C11.5979 3.52678 10.3261 3 9.00003 3Z" fill="black"/>
</svg>
