<svg width="22" height="22" viewBox="0 0 22 22" fill="none" xmlns="http://www.w3.org/2000/svg">
<path d="M1.375 6.53125C1.375 5.71074 1.70095 4.92383 2.28114 4.34364C2.86133 3.76345 3.64824 3.4375 4.46875 3.4375H17.5312C18.3518 3.4375 19.1387 3.76345 19.7189 4.34364C20.2991 4.92383 20.625 5.71074 20.625 6.53125V15.4688C20.625 16.2893 20.2991 17.0762 19.7189 17.6564C19.1387 18.2366 18.3518 18.5625 17.5312 18.5625H4.46875C3.64824 18.5625 2.86133 18.2366 2.28114 17.6564C1.70095 17.0762 1.375 16.2893 1.375 15.4688V6.53125ZM4.46875 4.8125C4.01291 4.8125 3.57574 4.99358 3.25341 5.31591C2.93108 5.63824 2.75 6.07541 2.75 6.53125V7.5625H19.25V6.53125C19.25 6.07541 19.0689 5.63824 18.7466 5.31591C18.4243 4.99358 17.9871 4.8125 17.5312 4.8125H4.46875ZM2.75 15.4688C2.75 15.9246 2.93108 16.3618 3.25341 16.6841C3.57574 17.0064 4.01291 17.1875 4.46875 17.1875H17.5312C17.9871 17.1875 18.4243 17.0064 18.7466 16.6841C19.0689 16.3618 19.25 15.9246 19.25 15.4688V8.9375H2.75V15.4688ZM14.4375 13.0625H16.5C16.6823 13.0625 16.8572 13.1349 16.9861 13.2639C17.1151 13.3928 17.1875 13.5677 17.1875 13.75C17.1875 13.9323 17.1151 14.1072 16.9861 14.2361C16.8572 14.3651 16.6823 14.4375 16.5 14.4375H14.4375C14.2552 14.4375 14.0803 14.3651 13.9514 14.2361C13.8224 14.1072 13.75 13.9323 13.75 13.75C13.75 13.5677 13.8224 13.3928 13.9514 13.2639C14.0803 13.1349 14.2552 13.0625 14.4375 13.0625Z" fill="#093663"/>
</svg>
