<svg width="26" height="26" viewBox="0 0 26 26" fill="none" xmlns="http://www.w3.org/2000/svg">
<path d="M12.9999 2.7085C14.274 2.70811 15.5147 3.11614 16.5399 3.87272C17.565 4.6293 18.3207 5.69457 18.6959 6.91218C19.0711 8.12979 19.0461 9.4356 18.6246 10.638C18.2031 11.8403 17.4073 12.8759 16.3539 13.5927C18.1822 14.2633 19.768 15.4658 20.9071 17.0452C22.0462 18.6247 22.6865 20.509 22.7456 22.4555C22.7511 22.5635 22.735 22.6716 22.6982 22.7733C22.6614 22.8751 22.6047 22.9684 22.5313 23.0479C22.458 23.1275 22.3695 23.1915 22.271 23.2364C22.1726 23.2812 22.0661 23.306 21.958 23.3091C21.8499 23.3123 21.7422 23.2939 21.6413 23.2549C21.5404 23.2159 21.4483 23.1571 21.3704 23.082C21.2925 23.007 21.2303 22.9171 21.1876 22.8177C21.1449 22.7183 21.1225 22.6113 21.1217 22.5032C21.0572 20.3922 20.1733 18.3894 18.6573 16.919C17.1413 15.4487 15.1124 14.6264 13.0005 14.6264C10.8886 14.6264 8.85965 15.4487 7.34367 16.919C5.82769 18.3894 4.94378 20.3922 4.87927 22.5032C4.87281 22.7187 4.78101 22.9227 4.62406 23.0705C4.46712 23.2184 4.25789 23.2978 4.0424 23.2913C3.82691 23.2848 3.62281 23.193 3.47501 23.0361C3.32721 22.8791 3.24781 22.6699 3.25427 22.4544C3.31358 20.5081 3.95399 18.6241 5.09308 17.0448C6.23217 15.4655 7.81781 14.2633 9.64594 13.5927C8.5926 12.8759 7.79678 11.8403 7.37527 10.638C6.95377 9.4356 6.92879 8.12979 7.304 6.91218C7.67921 5.69457 8.43484 4.6293 9.46 3.87272C10.4852 3.11614 11.7258 2.70811 12.9999 2.7085ZM8.66661 8.66683C8.66661 9.8161 9.12315 10.9183 9.93581 11.731C10.7485 12.5436 11.8507 13.0002 12.9999 13.0002C14.1492 13.0002 15.2514 12.5436 16.0641 11.731C16.8767 10.9183 17.3333 9.8161 17.3333 8.66683C17.3333 7.51756 16.8767 6.41536 16.0641 5.6027C15.2514 4.79004 14.1492 4.3335 12.9999 4.3335C11.8507 4.3335 10.7485 4.79004 9.93581 5.6027C9.12315 6.41536 8.66661 7.51756 8.66661 8.66683Z" fill="black"/>
</svg>
