<svg width="28" height="28" viewBox="0 0 28 28" fill="none" xmlns="http://www.w3.org/2000/svg">
<path fill-rule="evenodd" clip-rule="evenodd" d="M17.9876 6.58359C17.8268 6.3265 17.5897 6.12597 17.3095 6.00992C17.0293 5.89386 16.7199 5.86806 16.4243 5.93609L14.3266 6.41793C14.1117 6.46734 13.8883 6.46734 13.6733 6.41793L11.5756 5.93609C11.2801 5.86806 10.9707 5.89386 10.6905 6.00992C10.4103 6.12597 10.1732 6.3265 10.0123 6.58359L8.86898 8.40826C8.75231 8.59493 8.59481 8.75243 8.40815 8.87026L6.58348 10.0136C6.32683 10.1743 6.1266 10.411 6.01057 10.6907C5.89454 10.9705 5.86847 11.2794 5.93598 11.5746L6.41781 13.6746C6.46705 13.8892 6.46705 14.1122 6.41781 14.3268L5.93598 16.4256C5.86821 16.721 5.89415 17.0301 6.01019 17.3101C6.12623 17.5901 6.32661 17.8269 6.58348 17.9878L8.40815 19.1311C8.59481 19.2478 8.75231 19.4053 8.87015 19.5919L10.0135 21.4166C10.3425 21.9428 10.9701 22.2029 11.5756 22.0641L13.6733 21.5823C13.8883 21.5329 14.1117 21.5329 14.3266 21.5823L16.4255 22.0641C16.7209 22.1319 17.03 22.1059 17.31 21.9899C17.59 21.8738 17.8268 21.6735 17.9876 21.4166L19.131 19.5919C19.2476 19.4053 19.4051 19.2478 19.5918 19.1311L21.4176 17.9878C21.6745 17.8267 21.8748 17.5896 21.9907 17.3094C22.1065 17.0292 22.1321 16.7199 22.064 16.4244L21.5833 14.3268C21.5339 14.1118 21.5339 13.8884 21.5833 13.6734L22.0651 11.5746C22.133 11.2793 22.1073 10.9703 21.9914 10.6903C21.8756 10.4103 21.6755 10.1734 21.4188 10.0124L19.593 8.86909C19.4066 8.75221 19.249 8.59467 19.1321 8.40826L17.9876 6.58359ZM17.4008 11.3984C17.473 11.2657 17.4909 11.1102 17.4507 10.9646C17.4105 10.819 17.3155 10.6947 17.1855 10.6177C17.0555 10.5408 16.9007 10.5173 16.7538 10.5521C16.6068 10.587 16.4791 10.6775 16.3975 10.8046L13.3466 15.9683L11.5045 14.2043C11.4498 14.1481 11.3844 14.1036 11.3122 14.0733C11.24 14.043 11.1624 14.0276 11.084 14.0279C11.0057 14.0283 10.9283 14.0444 10.8563 14.0753C10.7843 14.1062 10.7193 14.1513 10.6652 14.2079C10.611 14.2645 10.5688 14.3314 10.5411 14.4047C10.5133 14.4779 10.5006 14.556 10.5037 14.6343C10.5068 14.7126 10.5256 14.7894 10.5591 14.8602C10.5925 14.9311 10.6399 14.9945 10.6983 15.0466L13.0713 17.3204C13.1348 17.3812 13.2112 17.4268 13.2948 17.4538C13.3784 17.4809 13.4671 17.4887 13.5541 17.4767C13.6412 17.4647 13.7244 17.4332 13.7976 17.3845C13.8707 17.3358 13.9319 17.2712 13.9766 17.1956L17.4008 11.3984Z" fill="#4CAF50"/>
</svg>
